<svg xmlns="http://www.w3.org/2000/svg" xmlns:xlink="http://www.w3.org/1999/xlink" width="40" zoomAndPan="magnify" viewBox="0 0 30 30.000001" height="40" preserveAspectRatio="xMidYMid meet" version="1.0"><defs><clipPath id="719eeb74c0"><path d="M 0.882812 1 L 29.191406 1 L 29.191406 29 L 0.882812 29 Z M 0.882812 1 " clip-rule="nonzero"/></clipPath></defs><g clip-path="url(#719eeb74c0)"><path fill="#000000" d="M 0.882812 1.355469 L 0.882812 23.222656 L 15.035156 28.546875 L 29.191406 23.222656 L 29.191406 1.355469 Z M 7.660156 10.035156 C 9.679688 10.066406 11.085938 11.082031 11.097656 13.105469 L 8.90625 13.105469 C 8.910156 12.566406 8.679688 12.050781 8.191406 11.847656 C 7.644531 11.652344 6.960938 11.75 6.609375 12.210938 C 6.234375 12.773438 6.300781 13.402344 6.300781 14.066406 C 6.28125 14.949219 6.734375 15.714844 7.628906 15.71875 C 8.539062 15.675781 8.96875 15.230469 8.980469 14.414062 L 11.097656 14.414062 C 11.046875 16.582031 9.578125 17.425781 7.660156 17.433594 C 5.238281 17.449219 3.972656 15.742188 3.953125 13.734375 C 3.941406 11.3125 5.652344 10.054688 7.660156 10.035156 Z M 15.328125 10.035156 C 16.78125 10.019531 18.445312 10.652344 18.488281 12.242188 L 18.488281 12.363281 L 16.335938 12.363281 L 16.335938 12.324219 C 16.320312 11.800781 15.847656 11.601562 15.414062 11.597656 C 15.097656 11.605469 14.472656 11.675781 14.464844 12.066406 C 14.542969 12.683594 16.078125 12.792969 16.554688 12.910156 C 17.660156 13.144531 18.652344 13.773438 18.683594 14.941406 C 18.648438 16.828125 17.117188 17.429688 15.535156 17.433594 C 13.65625 17.421875 12.019531 16.96875 12.007812 14.890625 L 14.175781 14.890625 C 14.15625 15.632812 14.738281 15.789062 15.328125 15.792969 C 15.679688 15.792969 16.332031 15.777344 16.335938 15.3125 C 16.265625 14.742188 14.679688 14.59375 14.226562 14.476562 C 13.054688 14.183594 12.128906 13.574219 12.121094 12.324219 C 12.203125 10.503906 13.835938 10.042969 15.328125 10.035156 Z M 22.832031 10.035156 C 24.390625 10.050781 25.988281 10.640625 25.988281 12.363281 L 23.839844 12.363281 C 23.859375 11.820312 23.359375 11.601562 22.917969 11.597656 C 22.601562 11.605469 21.980469 11.675781 21.96875 12.066406 C 22.035156 12.675781 23.585938 12.796875 24.058594 12.910156 C 24.828125 13.097656 25.617188 13.410156 25.988281 14.101562 C 26.113281 14.328125 26.179688 14.609375 26.1875 14.941406 C 26.152344 16.828125 24.621094 17.429688 23.039062 17.433594 C 21.164062 17.421875 19.523438 16.96875 19.507812 14.890625 L 21.679688 14.890625 C 21.667969 15.363281 21.921875 15.683594 22.355469 15.761719 C 22.746094 15.796875 23.832031 15.929688 23.839844 15.3125 C 23.753906 14.734375 22.191406 14.597656 21.730469 14.476562 C 20.558594 14.183594 19.636719 13.578125 19.625 12.324219 C 19.707031 10.5 21.339844 10.042969 22.832031 10.035156 Z M 22.832031 10.035156 " fill-opacity="1" fill-rule="nonzero"/></g></svg>