<svg xmlns="http://www.w3.org/2000/svg" xmlns:xlink="http://www.w3.org/1999/xlink" width="40" zoomAndPan="magnify" viewBox="0 0 30 30.000001" height="40" preserveAspectRatio="xMidYMid meet" version="1.0"><defs><clipPath id="1e224d1955"><path d="M 6.027344 6 L 24.898438 6 L 24.898438 27.992188 L 6.027344 27.992188 Z M 6.027344 6 " clip-rule="nonzero"/></clipPath><clipPath id="726956fa76"><path d="M 7 1.863281 L 12 1.863281 L 12 6 L 7 6 Z M 7 1.863281 " clip-rule="nonzero"/></clipPath><clipPath id="8dc52a8d6f"><path d="M 11 1.863281 L 16 1.863281 L 16 6 L 11 6 Z M 11 1.863281 " clip-rule="nonzero"/></clipPath><clipPath id="c711b746dd"><path d="M 15 1.863281 L 20 1.863281 L 20 6 L 15 6 Z M 15 1.863281 " clip-rule="nonzero"/></clipPath><clipPath id="649316bfee"><path d="M 20 1.863281 L 24 1.863281 L 24 6 L 20 6 Z M 20 1.863281 " clip-rule="nonzero"/></clipPath></defs><g clip-path="url(#1e224d1955)"><path fill="#e44d26" d="M 24.867188 6.988281 L 23.152344 25.824219 L 15.453125 27.921875 L 7.773438 25.828125 L 6.0625 6.988281 Z M 24.867188 6.988281 " fill-opacity="1" fill-rule="nonzero"/></g><path fill="#f16529" d="M 15.464844 26.320312 L 21.6875 24.625 L 23.148438 8.53125 L 15.464844 8.53125 Z M 15.464844 26.320312 " fill-opacity="1" fill-rule="nonzero"/><path fill="#ebebeb" d="M 12.132812 13.152344 L 15.464844 13.152344 L 15.464844 10.839844 L 9.558594 10.839844 L 9.617188 11.460938 L 10.195312 17.828125 L 15.464844 17.828125 L 15.464844 15.515625 L 12.347656 15.515625 Z M 12.132812 13.152344 " fill-opacity="1" fill-rule="nonzero"/><path fill="#ebebeb" d="M 12.664062 18.984375 L 10.300781 18.984375 L 10.628906 22.609375 L 15.453125 23.925781 L 15.464844 23.921875 L 15.464844 21.519531 L 15.453125 21.519531 L 12.832031 20.824219 Z M 12.664062 18.984375 " fill-opacity="1" fill-rule="nonzero"/><g clip-path="url(#726956fa76)"><path fill="#000000" d="M 7.808594 1.871094 L 9.007812 1.871094 L 9.007812 3.03125 L 10.101562 3.03125 L 10.101562 1.871094 L 11.296875 1.871094 L 11.296875 5.382812 L 10.101562 5.382812 L 10.101562 4.207031 L 9.007812 4.207031 L 9.007812 5.382812 L 7.808594 5.382812 Z M 7.808594 1.871094 " fill-opacity="1" fill-rule="nonzero"/></g><g clip-path="url(#8dc52a8d6f)"><path fill="#000000" d="M 12.871094 3.035156 L 11.816406 3.035156 L 11.816406 1.871094 L 15.121094 1.871094 L 15.121094 3.035156 L 14.066406 3.035156 L 14.066406 5.382812 L 12.871094 5.382812 Z M 12.871094 3.035156 " fill-opacity="1" fill-rule="nonzero"/></g><g clip-path="url(#c711b746dd)"><path fill="#000000" d="M 15.644531 1.871094 L 16.894531 1.871094 L 17.660156 3.105469 L 18.425781 1.871094 L 19.675781 1.871094 L 19.675781 5.382812 L 18.484375 5.382812 L 18.484375 3.640625 L 17.660156 4.890625 L 17.640625 4.890625 L 16.816406 3.640625 L 16.816406 5.382812 L 15.644531 5.382812 Z M 15.644531 1.871094 " fill-opacity="1" fill-rule="nonzero"/></g><g clip-path="url(#649316bfee)"><path fill="#000000" d="M 20.269531 1.871094 L 21.46875 1.871094 L 21.46875 4.222656 L 23.148438 4.222656 L 23.148438 5.382812 L 20.269531 5.382812 Z M 20.269531 1.871094 " fill-opacity="1" fill-rule="nonzero"/></g><path fill="#ffffff" d="M 15.457031 17.828125 L 18.355469 17.828125 L 18.082031 20.824219 L 15.457031 21.519531 L 15.457031 23.921875 L 20.28125 22.609375 L 20.316406 22.21875 L 20.871094 16.136719 L 20.925781 15.515625 L 15.457031 15.515625 Z M 15.457031 17.828125 " fill-opacity="1" fill-rule="nonzero"/><path fill="#ffffff" d="M 15.457031 13.144531 L 15.457031 13.152344 L 21.140625 13.152344 L 21.1875 12.632812 L 21.296875 11.460938 L 21.351562 10.839844 L 15.457031 10.839844 Z M 15.457031 13.144531 " fill-opacity="1" fill-rule="nonzero"/></svg>