<svg xmlns="http://www.w3.org/2000/svg" xmlns:xlink="http://www.w3.org/1999/xlink" width="40" zoomAndPan="magnify" viewBox="0 0 30 30.000001" height="40" preserveAspectRatio="xMidYMid meet" version="1.0"><defs><clipPath id="c2e12af2e2"><path d="M 2.226562 1.742188 L 27.628906 1.742188 L 27.628906 27.144531 L 2.226562 27.144531 Z M 2.226562 1.742188 " clip-rule="nonzero"/></clipPath></defs><g clip-path="url(#c2e12af2e2)"><path fill="#f7df1e" d="M 2.226562 1.742188 L 27.628906 1.742188 L 27.628906 27.144531 L 2.226562 27.144531 Z M 2.226562 1.742188 " fill-opacity="1" fill-rule="nonzero"/></g><path fill="#000000" d="M 8.90625 22.972656 L 10.847656 21.792969 C 11.222656 22.460938 11.566406 23.023438 12.382812 23.023438 C 13.167969 23.023438 13.664062 22.714844 13.664062 21.519531 L 13.664062 13.40625 L 16.050781 13.40625 L 16.050781 21.554688 C 16.050781 24.027344 14.601562 25.152344 12.484375 25.152344 C 10.578125 25.152344 9.46875 24.164062 8.90625 22.96875 " fill-opacity="1" fill-rule="nonzero"/><path fill="#000000" d="M 17.347656 22.714844 L 19.289062 21.589844 C 19.800781 22.425781 20.46875 23.039062 21.644531 23.039062 C 22.632812 23.039062 23.265625 22.542969 23.265625 21.863281 C 23.265625 21.042969 22.617188 20.753906 21.523438 20.277344 L 20.929688 20.019531 C 19.207031 19.289062 18.0625 18.367188 18.0625 16.421875 C 18.0625 14.632812 19.425781 13.269531 21.558594 13.269531 C 23.078125 13.269531 24.167969 13.796875 24.953125 15.179688 L 23.09375 16.371094 C 22.683594 15.636719 22.242188 15.347656 21.558594 15.347656 C 20.859375 15.347656 20.417969 15.792969 20.417969 16.371094 C 20.417969 17.085938 20.859375 17.378906 21.882812 17.820312 L 22.480469 18.078125 C 24.507812 18.945312 25.652344 19.832031 25.652344 21.828125 C 25.652344 23.976562 23.964844 25.152344 21.695312 25.152344 C 19.476562 25.152344 18.046875 24.097656 17.347656 22.714844 " fill-opacity="1" fill-rule="nonzero"/></svg>